# xmcd
#
# Track frame offsets:
#	150
#	18582
#	38086
#	55523
#	68363
#	89832
#	107727
#	128508
#	143639
#	161607
#	181363
#	195570
#
# Disc length: 2795 seconds
# Revision: 0
# Processed by: cddbd v1.5.2PL0 Copyright (c) Steve Scherf et al.
# Submitted via: dBpowerAMP V12.0
#
DISCID=970ae90c
DTITLE=Dehlia Low - Ravens and Crows
DYEAR=2011
DGENRE=Bluegrass
TTITLE0=State of Jefferson
TTITLE1=Living is Easy
TTITLE2=Goin' Down
TTITLE3=What Do You Think of Her Now?
TTITLE4=Ravens and Crows
TTITLE5=Thunder
TTITLE6=Change Up
TTITLE7=Ride
TTITLE8=Drifting On a Lonesome Sea
TTITLE9=Better Left Unsaid
TTITLE10=$40 Chain
TTITLE11=Cannonball Blues
EXTD=
EXTT0=
EXTT1=
EXTT2=
EXTT3=
EXTT4=
EXTT5=
EXTT6=
EXTT7=
EXTT8=
EXTT9=
EXTT10=
EXTT11=
PLAYORDER=
